# xmcd
# Track frame offsets: 
#        182
#        17825
#        33650
#        50367
#        64032
#        79090
#        94912
#        110075
#        124190
#        138122
# Disc length: 2030 seconds
# Revision: 0
# Processed by: cddbd v1.4b41PL1 Copyright (c) Steve Scherf et al.
# Submitted via: ExactAudioCopy v0.90a9
#
DISCID=8507ec0a
DTITLE=Paul Personne - Paul Personne (reédition)
DYEAR=1900
DGENRE=
TTITLE0=Faut qu'ça bouge
TTITLE1=Continue de chercher
TTITLE2=Vieux blues
TTITLE3=Besoin de toi
TTITLE4=Partie
TTITLE5=Rien qu'un perdant
TTITLE6=Dis-moi
TTITLE7=Laisse-moi faire c'que j'veux
TTITLE8=Moi et ma guitarre
TTITLE9=Je vis avec le blues
EXTD=
EXTT0=
EXTT1=
EXTT2=
EXTT3=
EXTT4=
EXTT5=
EXTT6=
EXTT7=
EXTT8=
EXTT9=
PLAYORDER=
